<svg id="レイヤー_1" data-name="レイヤー 1" xmlns="https://www.w3.org/2000/svg" viewBox="0 0 122.37 47.18"><title>line-icon</title><path d="M77.42,28.41c.09-5,.18-9,.22-13.08,0-3.17-.09-6.33,0-9.49s1.58-4.65,4-4.64a4.93,4.93,0,0,1,4.57,4.47,17.21,17.21,0,0,1,0,2.49q0,15.48,0,31c0,.67,0,1.33,0,2A4.55,4.55,0,0,1,83,45.66a4.48,4.48,0,0,1-5.26-1.87c-3.09-4.13-6.09-8.32-9.15-12.48-2.82-3.84-5.67-7.67-9-12.24a20.66,20.66,0,0,0-1,3.91c-.08,5.33,0,10.66,0,16a20.3,20.3,0,0,1-.12,3.49,3.91,3.91,0,0,1-4.19,3.43A4.23,4.23,0,0,1,50,42.39a17.64,17.64,0,0,1-.08-3q0-15.74,0-31.47c0-.49,0-1,0-1.49a4.76,4.76,0,0,1,3.38-5c2.23-.85,3.9.53,5.15,2.14,2.45,3.14,4.74,6.4,7.09,9.62,3.13,4.3,6.24,8.62,9.4,12.9A25.08,25.08,0,0,0,77.42,28.41Z"/><path d="M102.31,9.73V19.2c3.9,0,7.68-.07,11.46,0a10.47,10.47,0,0,1,4.24.9,3.62,3.62,0,0,1,2.12,4.54,3.84,3.84,0,0,1-4,3.08c-2.49,0-5,0-7.49,0-1.81,0-3.61,0-6,0-.16,3.21-.3,6.1-.48,9.51,4.25,0,8.19-.13,12.12.07a7.92,7.92,0,0,1,4.48,1.53,5.18,5.18,0,0,1,1.39,3.89,3.39,3.39,0,0,1-3.44,3.06c-6.3.09-12.62.22-18.91,0-3.3-.14-4-1.14-4.06-4.45q-.12-17.73,0-35.46c0-3.62,1.2-4.66,4.93-4.73,5.49-.1,11-.09,16.48,0,2.88.05,5.24,2.13,5.19,4.29S118,9.63,115.06,9.7C111,9.8,106.84,9.73,102.31,9.73Z"/><path d="M10.35,37.4c1.48,0,2.59,0,3.69,0,3.48.14,7,.13,10.42.52,2.72.31,4,2,3.88,4.28a3.87,3.87,0,0,1-4.05,3.62c-6.15.18-12.31.22-18.45,0C3,45.8,1.73,44.32,1.7,41.3q-.15-17.71,0-35.43c0-2.81,1.8-4.63,4.1-4.67a4.75,4.75,0,0,1,4.46,4.52c.2,3,.12,6,.12,9C10.36,22,10.35,29.31,10.35,37.4Z"/><path d="M33.74,23.43c0-5.66-.05-11.32,0-17C33.81,3,35.6,1,38.29,1.19c2.2.14,4.06,2.42,4.07,5.4q.09,17.22,0,34.44c0,3.31-1.58,4.88-4.34,4.85s-4.18-1.6-4.23-5c-.09-5.83,0-11.65,0-17.47Z"/></svg>