<?xml version="1.0" encoding="utf-8"?>
<!-- Generator: Adobe Illustrator 23.0.2, SVG Export Plug-In . SVG Version: 6.00 Build 0)  -->
<svg version="1.1" id="レイヤー_1" xmlns="https://www.w3.org/2000/svg" xmlns:xlink="https://www.w3.org/1999/xlink" x="0px"
	 y="0px" viewBox="0 0 32.6 21.2" style="enable-background:new 0 0 32.6 21.2;" xml:space="preserve">
<style type="text/css">
	.st0{fill-rule:evenodd;clip-rule:evenodd;fill:#A3A3A3;}
</style>
<path class="st0" d="M10.3,20c3.6,0,5.6-1.8,5.6-5.6c0-4.7-3.4-6.3-6.2-5.2C9.7,5,11.2,4,13.6,3c0.5-0.2,0.8-1.3-1.1-1.3
	c-4.5,0-8.1,3-8.1,10.1C4.5,17.8,6.6,20,10.3,20z"/>
<path class="st0" d="M23,20c3.6,0,5.6-1.8,5.6-5.6c0-4.7-3.4-6.3-6.2-5.2C22.5,5,23.9,4,26.4,3c0.5-0.2,0.8-1.3-1.1-1.3
	c-4.5,0-8.1,3-8.1,10.1C17.3,17.8,19.3,20,23,20z"/>
</svg>
